<?xml version="1.0" encoding="utf-8"?>
<!-- Generator: Adobe Illustrator 24.1.2, SVG Export Plug-In . SVG Version: 6.00 Build 0)  -->
<svg version="1.1" id="Layer_1" xmlns="http://www.w3.org/2000/svg" xmlns:xlink="http://www.w3.org/1999/xlink" x="0px" y="0px"
	 viewBox="0 0 3000 1900" style="enable-background:new 0 0 3000 1900;" xml:space="preserve">
<style type="text/css">
	.st0{fill:#1F383F;}
	.st1{fill:#FD003C;}
	.st2{fill:#FC003C;}
	.st3{fill:#E65E7E;}
	.st4{fill:#951A3D;}
	.st5{fill:#C60E3C;}
	.st6{fill:#B9113C;}
	.st7{fill:#20383F;}
	.st8{fill:#21373F;}
</style>
<g>
	<g>
		<path class="st0" d="M0,1900C0,1266.7,0,633.3,0,0c1000,0,2000,0,3000,0c0,633.3,0,1266.7,0,1900C2000,1900,1000,1900,0,1900z
			 M744.3,668c-6.2,31.7-16.3,62.3-24.5,94c-11.1,0-21.4,0-31.7,0c-8.5,0-10.3,1.7-12.4,9.8c-4.3,17.1-8.8,34.2-13.2,51.3
			c-1,3.8-1.9,7.6-3.3,12.8c14,0,26.8,0,40,0c-0.9,5.4-1.2,9.7-2.3,13.8c-9.7,39.5-19.4,78.9-29.3,118.3
			c-5.3,21.3-12,42.4-16.2,63.9c-7.8,40.8,13.8,75.9,53.3,88.8c40.5,13.2,81.3,11.3,122.2,2.3c7.8-1.7,13.5-5.8,12.9-15.1
			c-0.1-1.5,0.8-3.2,1.2-4.7c3.5-13.9,7.1-27.7,10.5-41.6c0.5-2.1,0.1-4.4,0.1-7.2c-4.3-0.2-8.3-0.1-12.2-0.6
			c-9.2-1.1-18.7-1.6-27.6-3.8c-12.6-3.1-18.4-10.8-18.7-23.8c-0.1-6.2,0.8-12.7,2.3-18.7c8.3-33.3,17.1-66.4,25.4-99.7
			c4.7-18.7,8.7-37.5,13.2-56.3c3.3-13.7,5.1-15.2,18.9-15.3c10.7-0.1,21.3,0,32,0c6.9,0,13.8,0,21.4,0c6.4-24.9,12.5-48.9,19-74.3
			c-22.9,0-44.1,0-66.9,0c7.7-32,15.1-62.7,22.5-93.4c-0.5-4.3-4-2.5-6.1-2.5c-41.3-0.1-82.5-0.1-123.8,0
			C749,665.9,746.7,667.2,744.3,668z M1544,1115.8c24.9,0.1,49.3-3.7,72.3-13.1c64.4-26.3,103.9-74.9,123.3-140.5
			c4.7-15.7,5.4-32.6,8.7-48.8c4.7-22.8,4.8-45.7,1.3-68.5c-6.9-44.5-37.7-77.3-80.7-86.1c-9.3-1.9-19-2.9-28.5-3.2
			c-27.1-1.1-52.8,5.1-77,17.2c-18,9-34,20.9-49.2,34c-2.9,2.5-6,4.8-8.8,7c-1.5-1.3-2.2-1.7-2.4-2.2c-0.4-1.2-0.9-2.6-0.8-3.8
			c0.7-13-5.1-23.2-13.8-32c-6.7-6.8-14.9-11.5-24.1-13.5c-9.4-2-19-3.5-28.6-3.9c-15.9-0.7-31.8-0.5-47.6,3.3
			c-12.9,3.1-26.1,4.7-39.1,7.1c-7.3,1.4-11,6.1-12.7,13.5c-3.6,15.9-8.1,31.6-12.1,47.4c-0.5,1.8-0.7,3.7-1.2,6.4c4.3,0,8,0,11.6,0
			c3.7,0,7.4-0.2,11,0.2c11.1,1.2,16.4,9.1,13.7,19.7c-9.7,37.4-19.6,74.7-29.1,112.2c-14.8,58.4-29.4,116.9-44.1,175.4
			c-4.9,19.4-13.2,25.8-33.3,26.1c-5.3,0.1-10.6,0-16.2,0c-5.7,21.7-11.3,42.5-16.9,63.8c3.5,0.3,5.8,0.7,8,0.7
			c69.7,0,139.3,0,209,0c8.4,0,8.5-0.1,10.8-8.5c4.3-16.1,8.5-32.2,12.7-48.3c0.6-2.2,0.7-4.4,1.3-8.2c-14.7,0-28.8,0-42.9,0
			c1.8-15,17.7-73.4,21.5-79.7c0.6,0.1,1.4,0,1.9,0.3c1.8,0.9,3.6,1.8,5.1,3c15.3,11.5,33.4,16.8,51.4,20.8
			c12.8,2.9,26.5,1.7,39.8,2.4C1540,1115.8,1542,1115.8,1544,1115.8z M2006,1115.8c8-0.6,16-0.7,23.9-1.8c42.5-5.8,80-22.4,110.5-53
			c31.9-31.9,53.6-69.5,61.9-114.1c2-10.7,2.5-21.7,4.5-32.5c4.8-25.4,6.6-51.1,0.5-76.3c-10.3-42.5-36.5-70.4-80.1-79.7
			c-24.8-5.3-49.6-3.6-74.1,2.7c-29.7,7.7-54.9,23.5-77.6,43.8c-3.4,3-7,5.6-11.7,9.3c-0.9-4.4-1.6-7.2-2.1-10
			c-4.8-22.8-18.2-37.5-41-42.6c-8.7-1.9-17.8-2.4-26.7-3.5c-6.7,0-13.3,0-20,0c-14.1,1.7-28.3,3.2-42.3,5.2
			c-7.5,1.1-15.1,2.8-22.4,4.9c-7.8,2.3-13.2,7.4-15.1,15.7c-3.2,13.6-6.5,27.1-9.8,40.7c-0.8,3.4-1.6,6.8-2.7,11.4
			c7.5,0,13.8-0.3,20.1,0.1c12.7,0.8,17.9,7.5,15.7,19.9c-0.5,2.9-1.3,5.8-2.1,8.7c-6.4,25.1-13,50.3-19.3,75.4
			c-16.9,67.1-33.7,134.3-50.5,201.4c-5.4,21.6-13.4,27.8-36,28c-4.6,0-9.1,0-14.1,0c-5.7,21.8-11.2,42.7-17,64.8
			c5.2,0.2,9.1,0.5,13,0.5c51.6,0,103.3,0,154.9,0c14.7,0,29.3,0.2,44-0.1c12-0.2,14.3-2.2,17.4-13.7c4-14.8,7.8-29.6,11.6-44.4
			c0.5-2.1,0.4-4.3,0.6-6.8c-14.4-1.5-28.3,0.8-43.1-1.6c6.9-26.6,13.6-52.3,20.6-78.9c2.8,0.9,5.5,1.1,7.5,2.5
			c26.2,18.5,56.2,23.1,87.3,23.8C1996.7,1115.8,2001.3,1115.8,2006,1115.8z M1266,1054.3c-3.4-0.2-6.4-0.4-9.3-0.4
			c-20.6-0.2-25.1-6.1-20-25.7c8.2-31.6,16.6-63.1,24.4-94.8c5.7-23.3,12.2-46.5,15.6-70.2c5-34.6-6.9-62.9-37.6-81.9
			c-11.4-7.1-23.6-12.8-36.7-15.3c-16.8-3.3-33.8-6.2-50.9-7.9c-60-5.9-119,0.3-177.3,14.7c-11.1,2.7-17,8.7-19.5,19.8
			c-4.9,21.4-10.7,42.6-16.1,63.9c-0.9,3.5-1.6,7-2.6,11.2c3.8,0.2,6.8,0.5,9.7,0.5c13.3,0,26.7-0.4,40,0c8.8,0.3,15.9-2.4,23.1-7.4
			c33.8-23.7,70.9-26.8,109.6-15.2c14.8,4.5,20.3,13.4,18.3,28.9c-1.5,11.5-4.2,22.8-6.5,34.1c-0.4,2.2-1.4,4.2-2.2,6.8
			c-14.1-2-27.8-4.2-41.4-5.8c-23.9-2.9-47.9-2.5-71.8,0.5c-26.6,3.4-52.5,9.4-76.4,22c-30.6,16-50.4,40.8-59.3,74.2
			c-12,44.8,3.4,101.8,66.3,116.6c51.9,12.2,99.9,2.9,142-31.2c2.7-2.2,5.4-4.6,8.7-7.4c1.9,3.2,3.6,5.3,4.5,7.6
			c7.2,18.8,21.6,29.2,40.6,33.5c34.5,7.9,68.2,3.4,101.2-8.1c6.4-2.2,10.7-6.6,12.4-13.3c3.7-14.2,7.4-28.3,11-42.6
			C1266.1,1059.4,1265.9,1057,1266,1054.3z M2229.7,836.1c5.9,0,11.1,0.1,16.3,0c8.8-0.2,15.4,3.6,20,11c1.2,2,2.4,4,3.6,6
			c17.3,28.4,30.2,59.4,49.7,86.6c4.4,6.2,3.7,12.6-1.1,18.4c-1.9,2.3-3.9,4.6-6,6.7c-14.4,14.4-28.9,28.6-43.1,43.1
			c-19.4,19.9-41.5,35.4-68,44.3c-5.2,1.8-8.1,5-9.4,10.5c-4.2,18.2-8.9,36.2-13.3,54.3c-0.4,1.8-0.2,3.9-0.3,5.8
			c1.3,0.4,2.3,0.9,3.2,0.9c26.7,0.1,53.3,0.1,80,0.2c4.8,0,8.1-2.3,11.4-5.3c27.5-24.4,53.2-50.4,74.3-80.7
			c3.6-5.2,7.6-10.1,11.6-15c2.5-3,5.2-5.7,8.4-9.2c2.3,4.1,4.2,7.2,6,10.3c9.1,16.6,17.9,33.5,27.5,49.9
			c5.8,10.1,12.6,19.6,19.4,29.1c6.4,8.9,15.1,14.8,25.5,18.5c28.6,10.4,57.4,10.9,86.4,2.2c25.9-7.7,22-6.7,28.4-28.1
			c3-10.2,5.7-20.5,8.5-30.8c0.9-3.2,1.6-6.4,2.4-10.1c-2.2-0.3-3.8-0.8-5.4-0.7c-19.7,1.4-32.5-7.8-41.6-24.9
			c-14.9-28.3-30.9-56-46.6-83.9c-4.8-8.6-5-9.1,1.2-15.6c10.3-10.9,20.7-21.7,31.2-32.4c23-23.5,47.3-45.2,78.6-57.2
			c1.5-0.6,3-1.5,4.4-2.4c5.9-3.7,9.5-9,11.2-15.9c4.2-17.5,8.7-34.9,12.9-52.3c0.5-2.1,0.4-4.3,0.5-6.4c-1.7-0.3-2.7-0.7-3.6-0.7
			c-24.3-0.1-48.7-0.2-73-0.2c-8.5,0-15.4,3.4-21.3,9.4c-29.3,30-59.2,59.6-83.7,94c-1.8,2.6-4.1,4.9-6.8,8.2
			c-2.9-5.3-5.2-9.3-7.3-13.4c-12-23-23.9-46.2-36.1-69.1c-9.8-18.4-25.6-28.4-46.1-31.2c-3.6-0.5-7.3-1-10.9-1.3
			c-25.9-2.4-51.2,0.6-75.7,9.4c-7,2.5-10.9,6.5-12.3,14c-2.2,11.7-5.6,23.2-8.2,34.9C2231.3,822.9,2230.7,828.8,2229.7,836.1z
			 M509.7,811.7c-13.9-0.2-27.2,2.6-39.6,8.7c-18.8,9.2-30.8,24.2-34.9,44.7c-1.4,7-2.5,15.1-0.5,21.7c3.7,11.7,10.6,22,20.7,29.8
			c30.1,23.2,78.3,19.4,103.9-8.7c10.3-11.2,16.8-24.8,15.9-39.8c-1-17.4-8.3-32.7-23.5-43.2C539.1,816.2,525.2,811.4,509.7,811.7z
			 M455.1,1128c11.8-0.1,26.5-4.2,39.7-12.4c16.4-10.2,26.5-25.2,28.8-44.6c2.6-21.5-11-45-31.9-54.2c-9.6-4.2-20.3-7-30.7-7.8
			c-29.9-2.4-59.7,10.8-74.3,43.1c-1.2,2.7-2.3,5.6-2.7,8.5c-4.1,30.7,13.6,51.5,35.1,60.8C429.4,1125.8,440.1,1128,455.1,1128z"/>
		<path class="st1" d="M1894,758.1c8.9,1.1,18,1.5,26.7,3.5c22.9,5.1,36.2,19.8,41,42.6c0.6,2.8,1.2,5.6,2.1,10
			c4.7-3.7,8.3-6.3,11.7-9.3c22.7-20.2,47.9-36.1,77.6-43.8c24.4-6.3,49.3-8,74.1-2.7c43.6,9.3,69.8,37.2,80.1,79.7
			c6.1,25.2,4.3,50.8-0.5,76.3c-2,10.7-2.5,21.7-4.5,32.5c-8.3,44.7-30,82.2-61.9,114.1c-30.6,30.6-68,47.2-110.5,53
			c-7.9,1.1-15.9,1.2-23.9,1.8c-4.6,0-9.3,0-13.9,0c-31.1-0.7-61-5.3-87.3-23.8c-2-1.4-4.7-1.6-7.5-2.5
			c-6.9,26.6-13.6,52.3-20.6,78.9c14.8,2.4,28.7,0.1,43.1,1.6c-0.2,2.5,0,4.8-0.6,6.8c-3.8,14.8-7.6,29.6-11.6,44.4
			c-3.1,11.5-5.4,13.5-17.4,13.7c-14.6,0.3-29.3,0.1-44,0.1c-51.6,0-103.3,0-154.9,0c-3.9,0-7.8-0.3-13-0.5
			c5.8-22.2,11.3-43,17-64.8c5,0,9.6,0,14.1,0c22.5-0.1,30.5-6.4,36-28c16.8-67.1,33.6-134.3,50.5-201.4
			c6.3-25.2,12.9-50.3,19.3-75.4c0.7-2.9,1.5-5.8,2.1-8.7c2.2-12.4-3-19.1-15.7-19.9c-6.3-0.4-12.6-0.1-20.1-0.1
			c1.1-4.6,1.9-8,2.7-11.4c3.3-13.6,6.7-27.1,9.8-40.7c1.9-8.3,7.3-13.4,15.1-15.7c7.3-2.1,14.8-3.9,22.4-4.9
			c14.1-2,28.2-3.5,42.3-5.2C1880.7,758.2,1887.3,758.1,1894,758.1z M1911.3,1036.9c3.8,1.5,7.1,3,10.5,4.1
			c15.7,5.2,31.9,6.2,48.3,5.4c24.4-1.1,44.8-10.9,62.3-27.6c17.1-16.4,27.6-36.5,33.6-59.2c5.7-21.7,7.1-43.9,7.1-66.2
			c0-24.3-15.1-42.6-38.7-47.7c-19.3-4.1-38-1.3-55.6,6.7c-28.3,12.8-22.4,8.5-30.8,34.7c-0.2,0.6-0.3,1.3-0.5,1.9
			c-11.6,46.2-23.1,92.3-34.7,138.5C1912.2,1030.5,1911.9,1033.4,1911.3,1036.9z"/>
		<path class="st1" d="M1538,1115.8c-13.3-0.7-27,0.5-39.8-2.4c-18-4-36.1-9.3-51.4-20.8c-1.6-1.2-3.4-2.1-5.1-3
			c-0.5-0.3-1.3-0.2-1.9-0.3c-3.8,6.3-19.7,64.7-21.5,79.7c14.2,0,28.2,0,42.9,0c-0.6,3.8-0.8,6.1-1.3,8.2
			c-4.2,16.1-8.3,32.2-12.7,48.3c-2.3,8.4-2.4,8.5-10.8,8.5c-69.7,0.1-139.3,0.1-209,0c-2.3,0-4.6-0.4-8-0.7
			c5.7-21.4,11.2-42.2,16.9-63.8c5.7,0,11,0.1,16.2,0c20.1-0.3,28.4-6.7,33.3-26.1c14.7-58.5,29.3-116.9,44.1-175.4
			c9.5-37.4,19.4-74.8,29.1-112.2c2.8-10.6-2.6-18.5-13.7-19.7c-3.6-0.4-7.3-0.2-11-0.2c-3.6,0-7.3,0-11.6,0
			c0.5-2.7,0.7-4.5,1.2-6.4c4.1-15.8,8.5-31.5,12.1-47.4c1.7-7.5,5.4-12.1,12.7-13.5c13-2.5,26.3-4,39.1-7.1
			c15.8-3.8,31.7-4,47.6-3.3c9.6,0.4,19.2,1.9,28.6,3.9c9.2,2,17.4,6.7,24.1,13.5c8.7,8.8,14.5,19,13.8,32c-0.1,1.3,0.4,2.6,0.8,3.8
			c0.2,0.5,0.9,0.9,2.4,2.2c2.8-2.2,5.9-4.5,8.8-7c15.2-13.1,31.2-24.9,49.2-34c24.3-12.2,49.9-18.3,77-17.2
			c9.5,0.4,19.2,1.3,28.5,3.2c43,8.8,73.8,41.5,80.7,86.1c3.5,22.8,3.4,45.7-1.3,68.5c-3.4,16.2-4.1,33.1-8.7,48.8
			c-19.4,65.6-59,114.2-123.3,140.5c-23.1,9.4-47.4,13.2-72.3,13.1C1542,1115.8,1540,1115.8,1538,1115.8z M1451.3,1037.2
			c20.4,7.3,40.2,10.7,60.8,9.2c23.9-1.7,44.2-11.2,61.3-27.8c10.4-10.1,18.1-22.1,24.4-35.1c14.1-28.8,18.1-59.5,16.4-91.2
			c-1.3-24.6-16.1-41.6-40.2-46.8c-17.3-3.7-33.6,0.8-50.1,4.9c-20.1,4.9-31.1,17.6-35.8,37.3c-6.8,28.5-14.2,56.8-21.2,85.3
			C1461.7,994.2,1456.7,1015.2,1451.3,1037.2z"/>
		<path class="st1" d="M1266,1054.3c-0.1,2.7,0.1,5-0.4,7.2c-3.6,14.2-7.3,28.4-11,42.6c-1.7,6.7-6.1,11.1-12.4,13.3
			c-33,11.5-66.7,16-101.2,8.1c-19-4.3-33.4-14.7-40.6-33.5c-0.9-2.4-2.6-4.4-4.5-7.6c-3.3,2.8-5.9,5.2-8.7,7.4
			c-42.1,34.2-90.1,43.4-142,31.2c-62.9-14.8-78.3-71.8-66.3-116.6c9-33.4,28.7-58.1,59.3-74.2c24-12.6,49.9-18.5,76.4-22
			c23.9-3.1,47.9-3.4,71.8-0.5c13.7,1.7,27.3,3.8,41.4,5.8c0.9-2.6,1.8-4.7,2.2-6.8c2.3-11.4,4.9-22.7,6.5-34.1
			c2.1-15.5-3.5-24.4-18.3-28.9c-38.8-11.7-75.8-8.5-109.6,15.2c-7.2,5-14.3,7.7-23.1,7.4c-13.3-0.4-26.7,0-40,0
			c-2.9,0-5.9-0.3-9.7-0.5c1-4.2,1.7-7.7,2.6-11.2c5.4-21.3,11.3-42.5,16.1-63.9c2.5-11.1,8.5-17.1,19.5-19.8
			c58.4-14.4,117.4-20.6,177.3-14.7c17.1,1.7,34.1,4.6,50.9,7.9c13.1,2.6,25.3,8.3,36.7,15.3c30.7,19,42.6,47.2,37.6,81.9
			c-3.4,23.7-9.9,46.9-15.6,70.2c-7.8,31.7-16.2,63.2-24.4,94.8c-5.1,19.7-0.6,25.5,20,25.7C1259.7,1054,1262.6,1054.2,1266,1054.3z
			 M1006.7,1021.4c0.9,12.8,4.1,25.3,17.6,31.7c8.7,4.2,18.3,7,28.1,4.5c9.6-2.4,19.2-5.3,28.4-8.8c8.2-3.1,13.7-9.3,16-18
			c3.9-14.5,7.8-28.9,11.6-43.4c0.8-2.9,1.6-5.8,1.9-8.8c0.4-3.8-1.1-6.4-5.4-6.8c-12.8-1.2-25.7-3.5-38.5-3.5
			c-18.4,0-34.2,7.2-47.1,20.7C1010.7,997.9,1007.1,1008.6,1006.7,1021.4z"/>
		<path class="st1" d="M2229.7,836.1c1.1-7.2,1.6-13.2,2.8-19c2.6-11.7,6-23.2,8.2-34.9c1.4-7.5,5.3-11.5,12.3-14
			c24.6-8.8,49.8-11.8,75.7-9.4c3.6,0.3,7.3,0.8,10.9,1.3c20.5,2.8,36.3,12.7,46.1,31.2c12.2,22.9,24.1,46.1,36.1,69.1
			c2.1,4.1,4.4,8.1,7.3,13.4c2.7-3.3,5-5.6,6.8-8.2c24.5-34.4,54.3-64,83.7-94c5.9-6,12.8-9.5,21.3-9.4c24.3,0.1,48.7,0.1,73,0.2
			c1,0,1.9,0.4,3.6,0.7c-0.2,2.2,0,4.4-0.5,6.4c-4.3,17.5-8.7,34.9-12.9,52.3c-1.7,6.9-5.2,12.2-11.2,15.9c-1.4,0.9-2.8,1.8-4.4,2.4
			c-31.3,12-55.6,33.7-78.6,57.2c-10.5,10.7-20.9,21.5-31.2,32.4c-6.2,6.5-6,7.1-1.2,15.6c15.6,27.9,31.6,55.6,46.6,83.9
			c9.1,17.2,21.9,26.3,41.6,24.9c1.6-0.1,3.2,0.4,5.4,0.7c-0.9,3.7-1.6,6.9-2.4,10.1c-2.8,10.3-5.5,20.6-8.5,30.8
			c-6.3,21.5-2.4,20.4-28.4,28.1c-29,8.6-57.8,8.2-86.4-2.2c-10.3-3.8-19.1-9.6-25.5-18.5c-6.7-9.5-13.5-19-19.4-29.1
			c-9.5-16.4-18.3-33.2-27.5-49.9c-1.7-3.2-3.6-6.3-6-10.3c-3.2,3.4-6,6.2-8.4,9.2c-4,4.9-8,9.8-11.6,15
			c-21.1,30.3-46.8,56.3-74.3,80.7c-3.3,3-6.6,5.3-11.4,5.3c-26.7-0.1-53.3-0.1-80-0.2c-0.9,0-1.9-0.5-3.2-0.9c0.1-2-0.1-4,0.3-5.8
			c4.4-18.1,9.1-36.2,13.3-54.3c1.3-5.5,4.1-8.7,9.4-10.5c26.5-8.9,48.6-24.4,68-44.3c14.2-14.6,28.7-28.7,43.1-43.1
			c2.1-2.1,4.1-4.4,6-6.7c4.8-5.8,5.6-12.2,1.1-18.4c-19.6-27.2-32.4-58.1-49.7-86.6c-1.2-2-2.4-4-3.6-6c-4.6-7.4-11.1-11.2-20-11
			C2240.8,836.2,2235.6,836.1,2229.7,836.1z"/>
		<path class="st1" d="M881.2,668.4c-7.4,30.7-14.8,61.3-22.5,93.4c22.8,0,44,0,66.9,0c-6.5,25.4-12.7,49.4-19,74.3
			c-7.6,0-14.5,0-21.4,0c-10.7,0-21.3,0-32,0c-13.8,0.1-15.6,1.5-18.9,15.3c-4.5,18.7-8.5,37.6-13.2,56.3
			c-8.3,33.3-17.1,66.4-25.4,99.7c-1.5,6.1-2.4,12.5-2.3,18.7c0.3,13,6.1,20.7,18.7,23.8c9,2.2,18.4,2.7,27.6,3.8
			c3.9,0.5,7.9,0.4,12.2,0.6c0,2.8,0.4,5.1-0.1,7.2c-3.4,13.9-7,27.8-10.5,41.6c-0.4,1.6-1.3,3.2-1.2,4.7
			c0.6,9.3-5.1,13.3-12.9,15.1c-40.9,9-81.8,10.9-122.2-2.3c-39.5-12.9-61.1-48-53.3-88.8c4.1-21.5,10.8-42.6,16.2-63.9
			c9.9-39.4,19.6-78.9,29.3-118.3c1-4.1,1.4-8.4,2.3-13.8c-13.2,0-26,0-40,0c1.3-5.2,2.3-9,3.3-12.8c4.4-17.1,8.9-34.1,13.2-51.3
			c2-8.1,3.9-9.8,12.4-9.8c10.3,0,20.6,0,31.7,0c8.2-31.6,18.4-62.3,24.5-94C789.9,668.1,835.6,668.2,881.2,668.4z"/>
		<path class="st2" d="M509.7,811.7c15.5-0.3,29.4,4.5,42.1,13.3c15.2,10.5,22.5,25.8,23.5,43.2c0.9,15-5.6,28.6-15.9,39.8
			c-25.6,28.1-73.8,31.9-103.9,8.7c-10.1-7.8-17-18.1-20.7-29.8c-2.1-6.6-0.9-14.6,0.5-21.7c4.1-20.6,16.1-35.5,34.9-44.7
			C482.5,814.3,495.8,811.5,509.7,811.7z"/>
		<path class="st2" d="M455.1,1128c-15,0-25.7-2.2-35.9-6.6c-21.5-9.3-39.3-30.1-35.1-60.8c0.4-2.9,1.5-5.8,2.7-8.5
			c14.6-32.3,44.5-45.5,74.3-43.1c10.4,0.8,21.1,3.6,30.7,7.8c20.9,9.1,34.4,32.7,31.9,54.2c-2.3,19.3-12.4,34.3-28.8,44.6
			C481.7,1123.8,467,1127.9,455.1,1128z"/>
		<path class="st3" d="M881.2,668.4c-45.6-0.1-91.2-0.3-136.8-0.4c2.3-0.7,4.7-2,7-2c41.3-0.1,82.5-0.1,123.8,0
			C877.2,665.9,880.6,664.1,881.2,668.4z"/>
		<path class="st4" d="M1894,758.1c-6.7,0-13.3,0-20,0C1880.7,758.2,1887.3,758.1,1894,758.1z"/>
		<path class="st5" d="M1992,1115.8c4.6,0,9.3,0,13.9,0C2001.3,1115.8,1996.7,1115.8,1992,1115.8z"/>
		<path class="st6" d="M1538,1115.8c2,0,4,0,5.9,0C1542,1115.8,1540,1115.8,1538,1115.8z"/>
		<path class="st7" d="M1911.3,1036.9c0.6-3.5,0.8-6.5,1.6-9.3c11.5-46.2,23.1-92.3,34.7-138.5c0.2-0.6,0.3-1.3,0.5-1.9
			c8.4-26.2,2.5-21.9,30.8-34.7c17.6-8,36.3-10.8,55.6-6.7c23.7,5.1,38.7,23.4,38.7,47.7c0,22.3-1.4,44.5-7.1,66.2
			c-5.9,22.7-16.5,42.8-33.6,59.2c-17.4,16.7-37.8,26.5-62.3,27.6c-16.5,0.8-32.6-0.2-48.3-5.4
			C1918.4,1039.9,1915.2,1038.4,1911.3,1036.9z"/>
		<path class="st7" d="M1451.3,1037.2c5.3-22,10.4-43.1,15.6-64c7-28.4,14.5-56.8,21.2-85.3c4.7-19.7,15.7-32.4,35.8-37.3
			c16.5-4.1,32.8-8.6,50.1-4.9c24.1,5.2,38.9,22.2,40.2,46.8c1.7,31.7-2.3,62.3-16.4,91.2c-6.3,13-14,25-24.4,35.1
			c-17.1,16.6-37.4,26-61.3,27.8C1491.5,1048,1471.7,1044.6,1451.3,1037.2z"/>
		<path class="st8" d="M1006.7,1021.4c0.4-12.8,4-23.5,12.6-32.4c12.9-13.4,28.7-20.7,47.1-20.7c12.8,0,25.7,2.3,38.5,3.5
			c4.2,0.4,5.8,3.1,5.4,6.8c-0.3,3-1.1,5.9-1.9,8.8c-3.8,14.5-7.8,28.9-11.6,43.4c-2.3,8.7-7.8,14.9-16,18
			c-9.3,3.5-18.8,6.4-28.4,8.8c-9.8,2.4-19.3-0.3-28.1-4.5C1010.8,1046.7,1007.6,1034.2,1006.7,1021.4z"/>
	</g>
</g>
</svg>
